M48
;GenerationSoftware,Autodesk,EAGLE,9.7.0*%
;CreationDate,2026-04-10T13:47:03Z*%
FMAT,2
ICI,OFF
METRIC,TZ,000.000
T3C0.300
T2C1.067
T1C2.451
%
G90
M71
T1
X82867Y34290
X82867Y39370
X86042Y34290
X86042Y39370
T2
X82867Y36830
X87947Y35814
X87947Y37846
T3
X46390Y26000
X45190Y26000
X45190Y27200
X46390Y27200
X47590Y27200
X48790Y27200
X48790Y26000
X47590Y26000
X45190Y24800
X46390Y24800
X47590Y24800
X48790Y24800
X48790Y23600
X47590Y23600
X46390Y23600
X45190Y23600
M30