G04 EAGLE Gerber RS-274X export*
G75*
%MOMM*%
%FSLAX34Y34*%
%LPD*%
%INTop Copper*%
%IPPOS*%
%AMOC8*
5,1,8,0,0,1.08239X$1,22.5*%
G01*
G04 Define Apertures*
%ADD10R,1.150000X1.800000*%
%ADD11R,0.280000X0.430000*%
%ADD12R,0.700000X0.900000*%
%ADD13R,0.220000X0.230000*%
%ADD14R,1.150000X0.800000*%
%ADD15C,0.200000*%
%ADD16R,0.300000X0.350000*%
%ADD17R,0.350000X0.300000*%
%ADD18C,0.216000*%
%ADD19C,0.783000*%
%ADD20R,0.500000X0.600000*%
%ADD21R,0.900000X5.300000*%
%ADD22R,1.200000X2.200000*%
%ADD23R,0.800000X0.900000*%
%ADD24R,1.050000X0.500000*%
%ADD25R,0.350000X0.250000*%
%ADD26R,1.168400X1.600200*%
%ADD27C,2.000000*%
%ADD28R,4.850000X4.850000*%
%ADD29C,0.808000*%
%ADD30R,0.950000X0.850000*%
%ADD31R,1.000000X1.800000*%
G36*
X1043660Y293370D02*
X1043660Y240030D01*
X1023340Y240030D01*
X1023340Y250108D01*
X1025944Y251808D01*
X1025944Y251808D01*
X1025944Y251808D01*
X1028662Y254038D01*
X1030889Y256752D01*
X1030889Y256752D01*
X1030889Y256752D01*
X1032543Y259848D01*
X1032543Y259848D01*
X1033559Y263198D01*
X1033373Y266700D01*
X1033559Y270202D01*
X1032543Y273552D01*
X1032543Y273552D01*
X1030889Y276648D01*
X1030889Y276648D01*
X1030889Y276648D01*
X1028662Y279362D01*
X1025944Y281592D01*
X1025944Y281592D01*
X1023340Y283292D01*
X1023340Y293370D01*
X1043660Y293370D01*
G37*
G36*
X1043660Y293370D02*
X1043660Y240030D01*
X1023340Y240030D01*
X1023340Y250108D01*
X1025944Y251808D01*
X1025944Y251808D01*
X1025944Y251808D01*
X1028662Y254038D01*
X1030889Y256752D01*
X1030889Y256752D01*
X1030889Y256752D01*
X1032543Y259848D01*
X1032543Y259848D01*
X1033559Y263198D01*
X1033373Y266700D01*
X1033559Y270202D01*
X1032543Y273552D01*
X1032543Y273552D01*
X1030889Y276648D01*
X1030889Y276648D01*
X1030889Y276648D01*
X1028662Y279362D01*
X1025944Y281592D01*
X1025944Y281592D01*
X1023340Y283292D01*
X1023340Y293370D01*
X1043660Y293370D01*
G37*
G36*
X1008660Y250108D02*
X1008660Y240030D01*
X988340Y240030D01*
X988340Y293370D01*
X1008660Y293370D01*
X1008660Y283292D01*
X1006056Y281592D01*
X1006056Y281592D01*
X1003338Y279362D01*
X1001111Y276648D01*
X1001111Y276648D01*
X1001111Y276648D01*
X999457Y273552D01*
X999457Y273552D01*
X998441Y270202D01*
X998627Y266700D01*
X998441Y263198D01*
X999457Y259848D01*
X999457Y259848D01*
X1001111Y256752D01*
X1001111Y256752D01*
X1001111Y256752D01*
X1003338Y254038D01*
X1006056Y251808D01*
X1006056Y251808D01*
X1008660Y250108D01*
G37*
G36*
X1008660Y250108D02*
X1008660Y240030D01*
X988340Y240030D01*
X988340Y293370D01*
X1008660Y293370D01*
X1008660Y283292D01*
X1006056Y281592D01*
X1006056Y281592D01*
X1003338Y279362D01*
X1001111Y276648D01*
X1001111Y276648D01*
X1001111Y276648D01*
X999457Y273552D01*
X999457Y273552D01*
X998441Y270202D01*
X998627Y266700D01*
X998441Y263198D01*
X999457Y259848D01*
X999457Y259848D01*
X1001111Y256752D01*
X1001111Y256752D01*
X1001111Y256752D01*
X1003338Y254038D01*
X1006056Y251808D01*
X1006056Y251808D01*
X1008660Y250108D01*
G37*
D10*
X658100Y825500D03*
X688100Y825500D03*
D11*
X886450Y508000D03*
X891550Y508000D03*
D12*
X831700Y571500D03*
X844700Y571500D03*
X336400Y508000D03*
X349400Y508000D03*
D11*
X632450Y723900D03*
X637550Y723900D03*
X695950Y444500D03*
X701050Y444500D03*
X632450Y444500D03*
X637550Y444500D03*
X581650Y723900D03*
X586750Y723900D03*
D12*
X704700Y571500D03*
X717700Y571500D03*
X641200Y571500D03*
X654200Y571500D03*
D11*
X759450Y508000D03*
X764550Y508000D03*
X695950Y508000D03*
X701050Y508000D03*
X632450Y508000D03*
X637550Y508000D03*
D12*
X882500Y774700D03*
X895500Y774700D03*
D11*
X822950Y508000D03*
X828050Y508000D03*
D12*
X577700Y571500D03*
X590700Y571500D03*
X514200Y571500D03*
X527200Y571500D03*
D11*
X530850Y723900D03*
X535950Y723900D03*
D13*
X582350Y812800D03*
X586050Y812800D03*
D12*
X450700Y571500D03*
X463700Y571500D03*
X387200Y571500D03*
X400200Y571500D03*
D11*
X568950Y444500D03*
X574050Y444500D03*
D12*
X831700Y774700D03*
X844700Y774700D03*
D11*
X518150Y508000D03*
X523250Y508000D03*
D12*
X780900Y774700D03*
X793900Y774700D03*
X869800Y622300D03*
X882800Y622300D03*
D13*
X556950Y812800D03*
X560650Y812800D03*
X531550Y812800D03*
X535250Y812800D03*
D11*
X568950Y508000D03*
X574050Y508000D03*
X467350Y508000D03*
X472450Y508000D03*
X378450Y342900D03*
X383550Y342900D03*
D12*
X768200Y571500D03*
X781200Y571500D03*
D11*
X886450Y444500D03*
X891550Y444500D03*
X822950Y444500D03*
X828050Y444500D03*
X759450Y444500D03*
X764550Y444500D03*
D14*
X706400Y774700D03*
X741400Y774700D03*
X604800Y774700D03*
X639800Y774700D03*
X503200Y774700D03*
X538200Y774700D03*
D15*
X429800Y729900D03*
X433800Y729900D03*
X429800Y725900D03*
X433800Y725900D03*
X429800Y721900D03*
X433800Y721900D03*
X429800Y717900D03*
X433800Y717900D03*
D16*
X805300Y614550D03*
X810300Y614550D03*
X815300Y614550D03*
X820300Y614550D03*
D17*
X820550Y619800D03*
X820550Y624800D03*
D16*
X820300Y630050D03*
X815300Y630050D03*
X810300Y630050D03*
X805300Y630050D03*
D17*
X805050Y624800D03*
X805050Y619800D03*
D18*
X770700Y731900D03*
X774700Y731900D03*
X778700Y731900D03*
X770700Y727900D03*
X774700Y727900D03*
X778700Y727900D03*
X770700Y723900D03*
X774700Y723900D03*
X778700Y723900D03*
X770700Y719900D03*
X774700Y719900D03*
X778700Y719900D03*
X770700Y715900D03*
X774700Y715900D03*
X778700Y715900D03*
D19*
X841370Y361950D03*
X841370Y374650D03*
X854070Y361950D03*
X854070Y374650D03*
X866780Y361950D03*
X866780Y374650D03*
D20*
X490300Y444500D03*
X500300Y444500D03*
X426800Y444500D03*
X436800Y444500D03*
X363300Y444500D03*
X373300Y444500D03*
D21*
X993140Y266700D03*
X1038860Y266700D03*
D22*
X688220Y355600D03*
X708780Y355600D03*
D23*
X625500Y282100D03*
X644500Y282100D03*
X635000Y303100D03*
D24*
X827700Y832000D03*
X827700Y819000D03*
X848700Y825500D03*
D25*
X914400Y853650D03*
X914400Y848150D03*
X889000Y853650D03*
X889000Y848150D03*
X508000Y815550D03*
X508000Y810050D03*
X482600Y815550D03*
X482600Y810050D03*
X457200Y815550D03*
X457200Y810050D03*
X431800Y815550D03*
X431800Y810050D03*
X406400Y815550D03*
X406400Y810050D03*
X381000Y815550D03*
X381000Y810050D03*
X355600Y815550D03*
X355600Y810050D03*
X863600Y853650D03*
X863600Y848150D03*
D26*
X678180Y723900D03*
X693420Y723900D03*
D27*
X571500Y673100D03*
X863600Y723900D03*
X660400Y673100D03*
X431800Y622300D03*
X393700Y673100D03*
X482600Y673100D03*
X660400Y622300D03*
X546100Y622300D03*
X749300Y673100D03*
X838200Y673100D03*
D28*
X469900Y254000D03*
D15*
X442400Y254000D03*
X442400Y259000D03*
X442400Y264000D03*
X442400Y269000D03*
X442400Y274000D03*
X437400Y276500D03*
X437400Y266500D03*
X437400Y261500D03*
X437400Y256500D03*
X437400Y251500D03*
X442400Y249000D03*
X442400Y244000D03*
X437400Y246500D03*
X437400Y241500D03*
X437400Y236500D03*
X442400Y234000D03*
X442400Y229000D03*
X442400Y221500D03*
X447400Y221500D03*
X449900Y226500D03*
X452400Y221500D03*
X457400Y221500D03*
X462400Y221500D03*
X467400Y221500D03*
X472400Y221500D03*
X477400Y221500D03*
X482400Y221500D03*
X487400Y221500D03*
X492400Y221500D03*
X497400Y221500D03*
X489900Y226500D03*
X484900Y226500D03*
X479900Y226500D03*
X474900Y226500D03*
X469900Y226500D03*
X464900Y226500D03*
X459900Y226500D03*
X497400Y234000D03*
X502400Y231500D03*
X502400Y226500D03*
X502400Y236500D03*
X497400Y239000D03*
X502400Y241500D03*
X497400Y244000D03*
X497400Y249000D03*
X502400Y246500D03*
X502400Y251500D03*
X502400Y256500D03*
X502400Y261500D03*
X497400Y264000D03*
X497400Y269000D03*
X502400Y271500D03*
X497400Y274000D03*
X502400Y281500D03*
X437400Y281500D03*
X449900Y281500D03*
X454900Y281500D03*
X459900Y281500D03*
X462400Y286500D03*
X464900Y281500D03*
X467400Y286500D03*
X469900Y281500D03*
X472400Y286500D03*
X474900Y281500D03*
X477400Y286500D03*
X479900Y281500D03*
X482400Y286500D03*
X484900Y281500D03*
X487400Y286500D03*
X492400Y286500D03*
X497400Y286500D03*
X444900Y281500D03*
X457400Y286500D03*
D29*
X463900Y260000D03*
X451900Y260000D03*
X451900Y272000D03*
X463900Y272000D03*
X475900Y272000D03*
X487900Y272000D03*
X487900Y260000D03*
X475900Y260000D03*
X451900Y248000D03*
X463900Y248000D03*
X475900Y248000D03*
X487900Y248000D03*
X487900Y236000D03*
X475900Y236000D03*
X463900Y236000D03*
X451900Y236000D03*
D30*
X551550Y349850D03*
X566050Y349850D03*
X566050Y361350D03*
X551550Y361350D03*
D31*
X444700Y355600D03*
X469700Y355600D03*
M02*
