G04 EAGLE Gerber RS-274X export*
G75*
%MOMM*%
%FSLAX34Y34*%
%LPD*%
%INSoldermask Top*%
%IPPOS*%
%AMOC8*
5,1,8,0,0,1.08239X$1,22.5*%
G01*
G04 Define Apertures*
%ADD10R,1.353200X2.003200*%
%ADD11R,0.483200X0.633200*%
%ADD12R,0.903200X1.103200*%
%ADD13R,0.423200X0.433200*%
%ADD14R,1.353200X1.003200*%
%ADD15C,0.403200*%
%ADD16R,0.503200X0.553200*%
%ADD17R,0.553200X0.503200*%
%ADD18C,0.419200*%
%ADD19C,0.986200*%
%ADD20C,2.654200*%
%ADD21C,1.270200*%
%ADD22R,0.703200X0.803200*%
%ADD23R,1.103200X5.503200*%
%ADD24R,1.403200X2.403200*%
%ADD25R,1.003200X1.103200*%
%ADD26R,1.253200X0.703200*%
%ADD27R,0.553200X0.453200*%
%ADD28R,0.152400X1.828800*%
%ADD29R,1.371600X1.803400*%
%ADD30C,2.203200*%
%ADD31R,5.053200X5.053200*%
%ADD32R,1.153200X1.053200*%
%ADD33R,1.203200X2.003200*%
D10*
X658100Y825500D03*
X688100Y825500D03*
D11*
X886450Y508000D03*
X891550Y508000D03*
D12*
X831700Y571500D03*
X844700Y571500D03*
X336400Y508000D03*
X349400Y508000D03*
D11*
X632450Y723900D03*
X637550Y723900D03*
X695950Y444500D03*
X701050Y444500D03*
X632450Y444500D03*
X637550Y444500D03*
X581650Y723900D03*
X586750Y723900D03*
D12*
X704700Y571500D03*
X717700Y571500D03*
X641200Y571500D03*
X654200Y571500D03*
D11*
X759450Y508000D03*
X764550Y508000D03*
X695950Y508000D03*
X701050Y508000D03*
X632450Y508000D03*
X637550Y508000D03*
D12*
X882500Y774700D03*
X895500Y774700D03*
D11*
X822950Y508000D03*
X828050Y508000D03*
D12*
X577700Y571500D03*
X590700Y571500D03*
X514200Y571500D03*
X527200Y571500D03*
D11*
X530850Y723900D03*
X535950Y723900D03*
D13*
X582350Y812800D03*
X586050Y812800D03*
D12*
X450700Y571500D03*
X463700Y571500D03*
X387200Y571500D03*
X400200Y571500D03*
D11*
X568950Y444500D03*
X574050Y444500D03*
D12*
X831700Y774700D03*
X844700Y774700D03*
D11*
X518150Y508000D03*
X523250Y508000D03*
D12*
X780900Y774700D03*
X793900Y774700D03*
X869800Y622300D03*
X882800Y622300D03*
D13*
X556950Y812800D03*
X560650Y812800D03*
X531550Y812800D03*
X535250Y812800D03*
D11*
X568950Y508000D03*
X574050Y508000D03*
X467350Y508000D03*
X472450Y508000D03*
X378450Y342900D03*
X383550Y342900D03*
D12*
X768200Y571500D03*
X781200Y571500D03*
D11*
X886450Y444500D03*
X891550Y444500D03*
X822950Y444500D03*
X828050Y444500D03*
X759450Y444500D03*
X764550Y444500D03*
D14*
X706400Y774700D03*
X741400Y774700D03*
X604800Y774700D03*
X639800Y774700D03*
X503200Y774700D03*
X538200Y774700D03*
D15*
X429800Y729900D03*
X433800Y729900D03*
X429800Y725900D03*
X433800Y725900D03*
X429800Y721900D03*
X433800Y721900D03*
X429800Y717900D03*
X433800Y717900D03*
D16*
X805300Y614550D03*
X810300Y614550D03*
X815300Y614550D03*
X820300Y614550D03*
D17*
X820550Y619800D03*
X820550Y624800D03*
D16*
X820300Y630050D03*
X815300Y630050D03*
X810300Y630050D03*
X805300Y630050D03*
D17*
X805050Y624800D03*
X805050Y619800D03*
D18*
X770700Y731900D03*
X774700Y731900D03*
X778700Y731900D03*
X770700Y727900D03*
X774700Y727900D03*
X778700Y727900D03*
X770700Y723900D03*
X774700Y723900D03*
X778700Y723900D03*
X770700Y719900D03*
X774700Y719900D03*
X778700Y719900D03*
X770700Y715900D03*
X774700Y715900D03*
X778700Y715900D03*
D19*
X841370Y361950D03*
X841370Y374650D03*
X854070Y361950D03*
X854070Y374650D03*
X866780Y361950D03*
X866780Y374650D03*
D20*
X828670Y342900D03*
D21*
X828670Y368300D03*
D20*
X828670Y393700D03*
X860420Y342900D03*
X860420Y393700D03*
D21*
X879470Y358140D03*
X879470Y378460D03*
D22*
X490300Y444500D03*
X500300Y444500D03*
X426800Y444500D03*
X436800Y444500D03*
X363300Y444500D03*
X373300Y444500D03*
D23*
X993140Y266700D03*
X1038860Y266700D03*
D24*
X688220Y355600D03*
X708780Y355600D03*
D25*
X625500Y282100D03*
X644500Y282100D03*
X635000Y303100D03*
D26*
X827700Y832000D03*
X827700Y819000D03*
X848700Y825500D03*
D27*
X914400Y853650D03*
X914400Y848150D03*
X889000Y853650D03*
X889000Y848150D03*
X508000Y815550D03*
X508000Y810050D03*
X482600Y815550D03*
X482600Y810050D03*
X457200Y815550D03*
X457200Y810050D03*
X431800Y815550D03*
X431800Y810050D03*
X406400Y815550D03*
X406400Y810050D03*
X381000Y815550D03*
X381000Y810050D03*
X355600Y815550D03*
X355600Y810050D03*
X863600Y853650D03*
X863600Y848150D03*
D28*
X685800Y723900D03*
D29*
X678180Y723900D03*
X693420Y723900D03*
D30*
X571500Y673100D03*
X863600Y723900D03*
X660400Y673100D03*
X431800Y622300D03*
X393700Y673100D03*
X482600Y673100D03*
X660400Y622300D03*
X546100Y622300D03*
X749300Y673100D03*
X838200Y673100D03*
D31*
X469900Y254000D03*
D15*
X442400Y254000D03*
X442400Y259000D03*
X442400Y264000D03*
X442400Y269000D03*
X442400Y274000D03*
X437400Y276500D03*
X437400Y266500D03*
X437400Y261500D03*
X437400Y256500D03*
X437400Y251500D03*
X442400Y249000D03*
X442400Y244000D03*
X437400Y246500D03*
X437400Y241500D03*
X437400Y236500D03*
X442400Y234000D03*
X442400Y229000D03*
X442400Y221500D03*
X447400Y221500D03*
X449900Y226500D03*
X452400Y221500D03*
X457400Y221500D03*
X462400Y221500D03*
X467400Y221500D03*
X472400Y221500D03*
X477400Y221500D03*
X482400Y221500D03*
X487400Y221500D03*
X492400Y221500D03*
X497400Y221500D03*
X489900Y226500D03*
X484900Y226500D03*
X479900Y226500D03*
X474900Y226500D03*
X469900Y226500D03*
X464900Y226500D03*
X459900Y226500D03*
X497400Y234000D03*
X502400Y231500D03*
X502400Y226500D03*
X502400Y236500D03*
X497400Y239000D03*
X502400Y241500D03*
X497400Y244000D03*
X497400Y249000D03*
X502400Y246500D03*
X502400Y251500D03*
X502400Y256500D03*
X502400Y261500D03*
X497400Y264000D03*
X497400Y269000D03*
X502400Y271500D03*
X497400Y274000D03*
X502400Y281500D03*
X437400Y281500D03*
X449900Y281500D03*
X454900Y281500D03*
X459900Y281500D03*
X462400Y286500D03*
X464900Y281500D03*
X467400Y286500D03*
X469900Y281500D03*
X472400Y286500D03*
X474900Y281500D03*
X477400Y286500D03*
X479900Y281500D03*
X482400Y286500D03*
X484900Y281500D03*
X487400Y286500D03*
X492400Y286500D03*
X497400Y286500D03*
X444900Y281500D03*
X457400Y286500D03*
D32*
X551550Y349850D03*
X566050Y349850D03*
X566050Y361350D03*
X551550Y361350D03*
D33*
X444700Y355600D03*
X469700Y355600D03*
M02*
